<svg xmlns="http://www.w3.org/2000/svg" viewBox="0 0 1984.7 724.5"><defs><style>.cls-1{fill:#d35f5f;}.cls-1,.cls-2,.cls-3{stroke:#000;stroke-miterlimit:10;stroke-width:0.5px;}.cls-2{fill:#a60000;}.cls-3{fill:#7d1f1f;}.cls-4{font-size:140px;font-family:Sanchez-Regular, Sanchez ;}.cls-5{letter-spacing:-0.02em;}.cls-6{letter-spacing:0em;}.cls-7{letter-spacing:-0.09em;}.cls-8{letter-spacing:-0.02em;}.cls-9{letter-spacing:0em;}.cls-10{letter-spacing:-0.01em;}.cls-11{letter-spacing:-0.08em;}.cls-12{letter-spacing:0em;}.cls-13{letter-spacing:0em;}.cls-14{letter-spacing:-0.03em;}.cls-15{letter-spacing:0em;}.cls-16{letter-spacing:0em;}.cls-17{letter-spacing:0em;}.cls-18{letter-spacing:-0.14em;}</style></defs><title>Ресурс 1</title><g id="Слой_2" data-name="Слой 2"><g id="Слой_1-2" data-name="Слой 1"><rect class="cls-1" x="0.25" y="0.25" width="56.94" height="60.33"/><rect class="cls-1" x="79.33" y="0.25" width="56.94" height="120.67"/><rect class="cls-1" x="158.42" y="0.25" width="56.94" height="181"/><rect class="cls-1" x="237.5" y="0.25" width="56.94" height="241.33"/><rect class="cls-2" x="316.58" y="0.25" width="56.94" height="301.67"/><rect class="cls-2" x="395.67" y="0.25" width="56.94" height="362"/><rect class="cls-2" x="474.75" y="0.25" width="56.94" height="422.33"/><rect class="cls-2" x="553.83" y="0.25" width="56.94" height="482.67"/><rect class="cls-2" x="632.92" y="0.25" width="56.94" height="543"/><rect class="cls-3" x="712" y="0.25" width="56.94" height="603.33"/><rect class="cls-3" x="791.08" y="0.25" width="56.94" height="663.67"/><rect class="cls-3" x="870.17" y="0.25" width="56.94" height="724"/><text class="cls-4" transform="translate(992.96 138.31)">N<tspan class="cls-5" x="114.8" y="0">o</tspan><tspan class="cls-6" x="192.08" y="0">v</tspan><tspan x="274.12" y="0">ak</tspan><tspan class="cls-7" x="0" y="168">A</tspan><tspan x="105.7" y="168">cc</tspan><tspan class="cls-8" x="256.61" y="168">o</tspan><tspan x="334.6" y="168">un</tspan><tspan class="cls-9" x="506.65" y="168">t</tspan><tspan x="562.37" y="168">an</tspan><tspan class="cls-10" x="730.51" y="168">t</tspan><tspan x="785.53" y="168">s &amp;</tspan><tspan class="cls-11" x="0" y="336">T</tspan><tspan class="cls-12" x="90.72" y="336">a</tspan><tspan class="cls-13" x="171.78" y="336">x A</tspan><tspan class="cls-14" x="411.31" y="336">d</tspan><tspan x="493.36" y="336">v</tspan><tspan class="cls-15" x="575.68" y="336">i</tspan><tspan class="cls-16" x="616.28" y="336">so</tspan><tspan class="cls-17" x="764.82" y="336">r</tspan><tspan x="823.19" y="336">s</tspan><tspan class="cls-18" x="0" y="504">L</tspan><tspan x="73.64" y="504">TD</tspan></text></g></g></svg>