<?xml version="1.0" encoding="utf-8"?>
<!-- Generator: Adobe Illustrator 21.1.0, SVG Export Plug-In . SVG Version: 6.00 Build 0)  -->
<svg version="1.1" id="Слой_1" xmlns="http://www.w3.org/2000/svg" xmlns:xlink="http://www.w3.org/1999/xlink" x="0px" y="0px"
	 viewBox="0 0 1721.8 724.5" style="enable-background:new 0 0 1721.8 724.5;" xml:space="preserve">
<style type="text/css">
	.st0{fill:#E5E1E1;stroke:#000000;stroke-width:0.5;stroke-miterlimit:10;}
	.st1{fill:#E1E5E3;stroke:#000000;stroke-width:0.5;stroke-miterlimit:10;}
	.st2{fill:#E5E3E4;stroke:#000000;stroke-width:0.5;stroke-miterlimit:10;}
	.st3{fill:#C1616C;stroke:#000000;stroke-width:0.5;stroke-miterlimit:10;}
	.st4{fill:#C42E39;stroke:#000000;stroke-width:0.5;stroke-miterlimit:10;}
	.st5{fill:#FFFFFF;}
</style>
<g>
	<g>
		<g>
			<rect x="0.3" y="0.3" class="st0" width="41.6" height="60.3"/>
			<rect x="58" y="0.3" class="st1" width="41.6" height="120.7"/>
			<rect x="115.8" y="0.3" class="st0" width="41.6" height="181"/>
			<rect x="173.5" y="0.3" class="st2" width="41.6" height="241.3"/>
			<rect x="231.3" y="0.3" class="st3" width="41.6" height="301.7"/>
			<rect x="289.1" y="0.3" class="st3" width="41.6" height="362"/>
			<rect x="346.8" y="0.3" class="st3" width="41.6" height="422.3"/>
			<rect x="404.6" y="0.3" class="st3" width="41.6" height="482.7"/>
			<rect x="462.3" y="0.3" class="st4" width="41.6" height="543"/>
			<rect x="520.1" y="0.3" class="st4" width="41.6" height="603.3"/>
			<rect x="577.9" y="0.3" class="st4" width="41.6" height="663.7"/>
			<rect x="635.6" y="0.3" class="st4" width="41.6" height="724"/>
		</g>
	</g>
</g>
<g>
	<path class="st5" d="M816.3,151.1c-3.9,0-5.5-1.7-7.1-4.3l-40.5-63.3c-4.1-6.2-7-11.8-7-11.8h-0.3v68.9h10.8c1.1,0,1.8,0.6,1.8,1.7
		v7.1c0,1.1-0.7,1.7-1.8,1.7h-33.6c-1.1,0-1.8-0.6-1.8-1.7v-7.1c0-1.1,0.6-1.7,1.8-1.7h10.6V61.1h-10.6c-1.1,0-1.8-0.6-1.8-1.7v-7.1
		c0-1.1,0.6-1.7,1.8-1.7h19.6c3.9,0,5.6,2.4,7.1,4.8l39.9,62.4c4.5,7,8,13.6,8,13.6h0.3V61.1h-10.8c-1.1,0-1.7-0.6-1.7-1.7v-7.1
		c0-1.1,0.6-1.7,1.7-1.7h33.7c1.1,0,1.7,0.6,1.7,1.7v7.1c0,1.1-0.6,1.7-1.7,1.7h-10.8v88.3c0,1.1-0.7,1.7-1.8,1.7H816.3z"/>
	<path class="st5" d="M850.2,116.4c0-22.1,15.5-35.1,35-35.1c19.5,0,34.7,13.3,34.7,35.1s-14.8,35.7-34.9,35.7
		C865.2,152.1,850.2,138.3,850.2,116.4z M908.3,116.5c0-16-11.1-25.5-23.1-25.5c-12.2,0-23.2,9.5-23.2,25.5
		c0,15.8,10.6,25.8,23.1,25.8C897.6,142.3,908.3,132.3,908.3,116.5z"/>
	<path class="st5" d="M958.4,151.1c-2,0-2.4-0.6-3.1-2.5l-22.3-57h-7.8c-1,0-1.7-0.6-1.7-1.7v-6c0-1.1,0.6-1.7,1.7-1.7h26
		c1.1,0,1.7,0.6,1.7,1.7v6c0,1.1-0.6,1.7-1.7,1.7h-6.2l17.9,47.2h0.3l18.2-47.2h-6.3c-1.1,0-1.7-0.6-1.7-1.7v-6
		c0-1.1,0.6-1.7,1.7-1.7h26c1.1,0,1.8,0.6,1.8,1.7v6c0,1.1-0.7,1.7-1.8,1.7h-7.7l-22.5,57c-0.7,2-1.3,2.5-3.2,2.5H958.4z"/>
	<path class="st5" d="M1066.1,151.1c-4.1,0-6-1.5-6-5.9v-7.1h-0.3c-2.5,3.5-10.4,14.1-27.3,14.1c-13,0-23-7.3-23-19.5
		c0-16,15.4-22.3,37.5-22.3h11.8v-1.7c0-13.3-7.4-17.5-18.2-17.5c-14.8,0-20.6,6.4-21.1,6.4c-0.7,0.3-1.5,0.3-2.1-0.4l-3.9-4.9
		c-0.7-0.8-0.6-1.5,0.3-2.2c0.7-0.8,8.4-9,27.3-9c18.1,0,29.4,7.6,29.4,28v32.5h7.8c1.1,0,1.7,0.6,1.7,1.7v6c0,1.1-0.6,1.7-1.7,1.7
		H1066.1z M1058.8,118.9h-11.1c-14.6,0-26.2,1.8-26.2,12.3c0,6.3,5.6,11.1,14.4,11.1c11.8,0,19.6-7.8,22.8-12V118.9z"/>
	<path class="st5" d="M1157.6,151.1c-2.9,0-5.5-1.5-7.4-4.3l-24.8-33.6l-13.6,12.6v16h7.4c1.1,0,1.8,0.6,1.8,1.7v6
		c0,1.1-0.7,1.7-1.8,1.7h-26.7c-1.1,0-1.8-0.6-1.8-1.7v-6c0-1.1,0.7-1.7,1.8-1.7h7.7V59.9h-7.7c-1.1,0-1.8-0.6-1.8-1.7v-6
		c0-1.1,0.7-1.7,1.8-1.7h17.6c1.1,0,1.7,0.6,1.7,1.7V115l25.5-23.4h-5c-1.1,0-1.7-0.6-1.7-1.7v-6c0-1.1,0.6-1.7,1.7-1.7h26.9
		c1.1,0,1.7,0.6,1.7,1.7v6c0,1.1-0.6,1.7-1.7,1.7h-9.1l-17.1,15l26.2,35.1h6c1.1,0,1.7,0.6,1.7,1.7v6c0,1.1-0.7,1.7-1.7,1.7H1157.6z
		"/>
	<path class="st5" d="M805.9,319.1c-1.1,0-1.7-0.6-1.7-1.7v-7.1c0-1.1,0.6-1.7,1.7-1.7h9.8l-9.1-24.2h-39.1l-9.1,24.2h9.8
		c1.1,0,1.7,0.6,1.7,1.7v7.1c0,1.1-0.6,1.7-1.7,1.7h-31.5c-1.1,0-1.7-0.6-1.7-1.7v-7.1c0-1.1,0.6-1.7,1.7-1.7h9.4l30.1-79.5h-7.6
		c-1.1,0-1.8-0.6-1.8-1.7v-7.1c0-1.1,0.7-1.7,1.8-1.7h19c4.6,0,6.6,1.8,8.1,6l32.2,84h9.5c1.1,0,1.7,0.6,1.7,1.7v7.1
		c0,1.1-0.7,1.7-1.7,1.7H805.9z M787.3,233.1h-0.4l-15.7,41.6h31.6L787.3,233.1z"/>
	<path class="st5" d="M904.9,302.8c1,0.8,1,1.7,0.4,2.5c-1.7,3.1-11.3,14.7-29.8,14.7c-18.9,0-34.4-13.3-34.4-35.7
		c0-22.7,16.4-35.1,33.3-35.1c12.7,0,19.3,6.2,22.3,10.4h0.1l-0.1-7.7c0-1.1,0.7-1.8,1.8-1.8h5.3c1.1,0,1.7,0.7,1.7,1.8v23.8
		c0,1.1-0.7,1.7-1.7,1.7h-6.4c-1,0-1.7-0.6-1.7-1.7v-2.4c-0.1-6-7.7-14.3-19.9-14.3c-10.5,0-23,8.7-23,25.5
		c0,16.7,11.8,25.8,23.4,25.8c12,0,20.3-7.7,22.3-10.9c0.6-1,1.5-1.1,2.4-0.4L904.9,302.8z"/>
	<path class="st5" d="M980.4,302.8c1,0.8,1,1.7,0.4,2.5c-1.7,3.1-11.3,14.7-29.8,14.7c-18.9,0-34.4-13.3-34.4-35.7
		c0-22.7,16.4-35.1,33.3-35.1c12.7,0,19.3,6.2,22.3,10.4h0.1l-0.1-7.7c0-1.1,0.7-1.8,1.8-1.8h5.3c1.1,0,1.7,0.7,1.7,1.8v23.8
		c0,1.1-0.7,1.7-1.7,1.7h-6.4c-1,0-1.7-0.6-1.7-1.7v-2.4c-0.1-6-7.7-14.3-19.9-14.3c-10.5,0-23,8.7-23,25.5
		c0,16.7,11.8,25.8,23.4,25.8c12,0,20.3-7.7,22.3-10.9c0.6-1,1.5-1.1,2.4-0.4L980.4,302.8z"/>
	<path class="st5" d="M992,284.4c0-22.1,15.5-35.1,35-35.1c19.5,0,34.7,13.3,34.7,35.1s-14.8,35.7-34.9,35.7
		C1007,320.1,992,306.3,992,284.4z M1050.1,284.5c0-16-11.1-25.5-23.1-25.5c-12.2,0-23.2,9.5-23.2,25.5c0,15.8,10.6,25.8,23.1,25.8
		C1039.5,310.3,1050.1,300.3,1050.1,284.5z"/>
	<path class="st5" d="M1130.5,319.1c-4.1,0-6-1.5-6-5.9V308h-0.4c-1.5,3.2-6.7,12-21.8,12c-15.1,0-24.2-9.7-24.4-24.4v-36.1h-8
		c-1.1,0-1.7-0.6-1.7-1.7v-6c0-1.1,0.7-1.7,1.7-1.7h13.4c4.1,0,6,1.5,6,5.9v36.8c0,10.5,5,17.1,15.4,17.1c14,0,18.6-11.6,18.6-11.9
		v-38.5h-7.6c-1.1,0-1.7-0.6-1.7-1.7v-6c0-1.1,0.7-1.7,1.7-1.7h17.4c1.1,0,1.7,0.6,1.7,1.7v57.8h7.8c1.1,0,1.8,0.6,1.8,1.7v6
		c0,1.1-0.7,1.7-1.8,1.7H1130.5z"/>
	<path class="st5" d="M1216.3,319.1c-4.1,0-6-1.5-6-5.9v-36.8c0-10.5-5-17.1-15.4-17.1c-14.1,0-18.5,11.8-18.6,11.9v38.5h7.4
		c1.1,0,1.8,0.6,1.8,1.7v6c0,1.1-0.7,1.7-1.8,1.7h-26.7c-1.1,0-1.8-0.6-1.8-1.7v-6c0-1.1,0.7-1.7,1.8-1.7h7.7v-50.1h-7.7
		c-1.1,0-1.8-0.6-1.8-1.7v-6c0-1.1,0.7-1.7,1.8-1.7h16.4c1.1,0,1.8,0.6,1.8,1.7l-0.3,9.5h0.4c1.7-2.8,7.4-12.2,22.5-12.2
		c15.1,0,23.8,9.7,23.9,24.4v36.1h7.8c1.1,0,1.8,0.6,1.8,1.7v6c0,1.1-0.7,1.7-1.8,1.7H1216.3z"/>
	<path class="st5" d="M1288.8,311.9c0.8,0.8,0.6,1.8-0.3,2.7c-1.3,1.1-5.9,5.5-14.1,5.5c-14,0-22.5-8-22.5-23.8v-36.7h-7.8
		c-1.1,0-2-0.7-2-1.8V252c0-1.1,0.8-1.8,2-1.8h7.8v-14.1c0-1.1,0.8-2,2-2h7.8c1.1,0,1.8,0.8,1.8,2v14.1h17.8c1.1,0,2,0.7,2,1.8v5.7
		c0,1.1-0.8,1.8-2,1.8h-17.8V296c0,9.4,4.5,14.1,12,14.1c4.2,0,6.9-2.1,7.4-2.7c1-0.8,1.8-0.7,2.5,0.1L1288.8,311.9z"/>
	<path class="st5" d="M1354.3,319.1c-4.1,0-6-1.5-6-5.9v-7.1h-0.3c-2.5,3.5-10.4,14.1-27.3,14.1c-13,0-23-7.3-23-19.5
		c0-16,15.4-22.3,37.5-22.3h11.8v-1.7c0-13.3-7.4-17.5-18.2-17.5c-14.8,0-20.6,6.4-21.1,6.4c-0.7,0.3-1.5,0.3-2.1-0.4l-3.9-4.9
		c-0.7-0.8-0.6-1.5,0.3-2.2c0.7-0.8,8.4-9,27.3-9c18.1,0,29.4,7.6,29.4,28v32.5h7.8c1.1,0,1.7,0.6,1.7,1.7v6c0,1.1-0.6,1.7-1.7,1.7
		H1354.3z M1347,286.9H1336c-14.6,0-26.2,1.8-26.2,12.3c0,6.3,5.6,11.1,14.4,11.1c11.8,0,19.6-7.8,22.8-12V286.9z"/>
	<path class="st5" d="M1440.1,319.1c-4.1,0-6-1.5-6-5.9v-36.8c0-10.5-5-17.1-15.4-17.1c-14.1,0-18.5,11.8-18.6,11.9v38.5h7.4
		c1.1,0,1.8,0.6,1.8,1.7v6c0,1.1-0.7,1.7-1.8,1.7h-26.7c-1.1,0-1.8-0.6-1.8-1.7v-6c0-1.1,0.7-1.7,1.8-1.7h7.7v-50.1h-7.7
		c-1.1,0-1.8-0.6-1.8-1.7v-6c0-1.1,0.7-1.7,1.8-1.7h16.4c1.1,0,1.8,0.6,1.8,1.7l-0.3,9.5h0.4c1.7-2.8,7.4-12.2,22.5-12.2
		c15.1,0,23.8,9.7,23.9,24.4v36.1h7.8c1.1,0,1.8,0.6,1.8,1.7v6c0,1.1-0.7,1.7-1.8,1.7H1440.1z"/>
	<path class="st5" d="M1512.7,311.9c0.8,0.8,0.6,1.8-0.3,2.7c-1.3,1.1-5.9,5.5-14.1,5.5c-14,0-22.5-8-22.5-23.8v-36.7h-7.8
		c-1.1,0-2-0.7-2-1.8V252c0-1.1,0.8-1.8,2-1.8h7.8v-14.1c0-1.1,0.8-2,2-2h7.8c1.1,0,1.8,0.8,1.8,2v14.1h17.8c1.1,0,2,0.7,2,1.8v5.7
		c0,1.1-0.8,1.8-2,1.8h-17.8V296c0,9.4,4.5,14.1,12,14.1c4.2,0,6.9-2.1,7.4-2.7c1-0.8,1.8-0.7,2.5,0.1L1512.7,311.9z"/>
	<path class="st5" d="M1530,310h-0.3c0,0,0.3,6.9,0.3,7.3c0,1.1-0.8,1.8-2,1.8h-4.8c-1.1,0-1.8-0.7-1.8-1.8v-21
		c0-1.1,0.7-1.8,1.8-1.8h5.5c1.1,0,2,0.7,2,1.8v2.8c0,0,3.9,11.9,19.7,11.9c9.9,0,15.1-4.1,15.1-10.9c0-13.9-42.1-6.6-42.1-30.9
		c0-12.5,10.1-19.9,23.4-19.9c10.5,0,16.5,3.6,19.9,8.1h0.3c0,0-0.3-5-0.3-5.2c0-1.1,0.7-1.8,1.8-1.8h4.5c1.1,0,1.8,0.7,1.8,1.8
		v19.5c0,1.1-0.7,1.8-1.8,1.8h-5.5c-1.1,0-2-0.7-2-1.8v-2c0-3.9-4.6-11.2-17.4-11.2c-6.9,0-13.3,3.8-13.3,10.9
		c0,15.7,42.8,7.4,42.8,30.9c0,10.2-7.1,19.7-25.8,19.7C1537.6,320.1,1531.1,312.4,1530,310z"/>
	<path class="st5" d="M1700.5,319.1c-2.7,0-4.5-2.1-6.7-5.2l-2.9-4.2c-5.7,6-13.9,10.4-25.2,10.4c-23,0-33-15.1-33-28.3
		c0-18.5,15-25.8,23.9-29.5c-3.4-3.9-9.5-12.2-9.5-21.7c0-14.6,10.4-22.8,23.4-22.8c11.5,0,23.1,6.6,23.1,22c0,14.1-11.5,21-21.4,26
		l18.6,26.5c2.5-5.2,3.6-11.3,3.6-21c0-1.1,0.7-1.7,1.8-1.7h18.5c1.1,0,1.7,0.6,1.7,1.7v5.2c0,1.1-0.7,1.7-1.7,1.7h-10.4
		c-0.3,6.6-2.2,15.5-6.9,23.5l5.6,7.8h8.8c1.1,0,1.8,0.6,1.8,1.7v6.3c0,1.1-0.7,1.7-1.8,1.7H1700.5z M1662.7,270.5
		c-5.9,2.7-17.6,8.1-17.6,21c0,11.5,9.7,18.3,20.7,18.3c8.4,0,14.7-3.2,19-8.4L1662.7,270.5z M1682.9,240.1
		c0-6.4-4.1-12.3-11.9-12.3c-7.7,0-12.7,4.9-12.7,12.9c0,7.1,5.2,13.7,8.3,17.5C1674.2,254.8,1682.9,250.8,1682.9,240.1z"/>
	<path class="st5" d="M764.4,487.1c-1.1,0-1.8-0.7-1.8-1.8v-6.9c0-1.1,0.7-1.8,1.8-1.8H775v-79.5h-26.5v14.8c0,1.1-0.8,2-2,2h-7.8
		c-1.1,0-2-0.8-2-2v-23.5c0-1.1,0.8-1.8,2-1.8h84.4c1.1,0,2,0.7,2,1.8v23.5c0,1.1-0.8,2-2,2h-8c-1.1,0-1.8-0.8-1.8-2v-14.8h-26.2
		v79.5h9.8c1.1,0,2,0.7,2,1.8v6.9c0,1.1-0.8,1.8-2,1.8H764.4z"/>
	<path class="st5" d="M882.7,487.1c-4.1,0-6-1.5-6-5.9v-7.1h-0.3c-2.5,3.5-10.4,14.1-27.3,14.1c-13,0-23-7.3-23-19.5
		c0-16,15.4-22.3,37.5-22.3h11.8v-1.7c0-13.3-7.4-17.5-18.2-17.5c-14.8,0-20.6,6.4-21.1,6.4c-0.7,0.3-1.5,0.3-2.1-0.4l-3.9-4.9
		c-0.7-0.8-0.6-1.5,0.3-2.2c0.7-0.8,8.4-9,27.3-9c18.1,0,29.4,7.6,29.4,28v32.5h7.8c1.1,0,1.7,0.6,1.7,1.7v6c0,1.1-0.6,1.7-1.7,1.7
		H882.7z M875.4,454.9h-11.1c-14.6,0-26.2,1.8-26.2,12.3c0,6.3,5.6,11.1,14.4,11.1c11.8,0,19.6-7.8,22.8-12V454.9z"/>
	<path class="st5" d="M948.7,487.1c-1.1,0-1.7-0.6-1.7-1.7v-6c0-1.1,0.6-1.7,1.7-1.7h7l-16.5-20.3l-15.4,20.3h6.4
		c1.1,0,1.7,0.6,1.7,1.7v6c0,1.1-0.7,1.7-1.7,1.7h-23.7c-1.1,0-1.7-0.6-1.7-1.7v-6c0-1.1,0.6-1.7,1.7-1.7h6.7l20.4-25.8l-20.4-24.4
		h-6.7c-1,0-1.7-0.6-1.7-1.7v-6c0-1.1,0.6-1.7,1.7-1.7h26.3c1.1,0,1.7,0.6,1.7,1.7v6c0,1.1-0.7,1.7-1.7,1.7h-6.6l16.5,20l14.1-20
		h-5.6c-1,0-1.7-0.6-1.7-1.7v-6c0-1.1,0.6-1.7,1.7-1.7h23.7c1.1,0,1.7,0.6,1.7,1.7v6c0,1.1-0.6,1.7-1.7,1.7h-7.6l-19,25.9l20.4,24.2
		h6.2c1.1,0,1.7,0.6,1.7,1.7v6c0,1.1-0.7,1.7-1.7,1.7H948.7z"/>
	<path class="st5" d="M1099.5,487.1c-1.1,0-1.7-0.6-1.7-1.7v-7.1c0-1.1,0.6-1.7,1.7-1.7h9.8l-9.1-24.2h-39.1l-9.1,24.2h9.8
		c1.1,0,1.7,0.6,1.7,1.7v7.1c0,1.1-0.6,1.7-1.7,1.7h-31.5c-1.1,0-1.7-0.6-1.7-1.7v-7.1c0-1.1,0.6-1.7,1.7-1.7h9.4l30.1-79.5h-7.6
		c-1.1,0-1.8-0.6-1.8-1.7v-7.1c0-1.1,0.7-1.7,1.8-1.7h19c4.6,0,6.6,1.8,8.1,6l32.2,84h9.5c1.1,0,1.7,0.6,1.7,1.7v7.1
		c0,1.1-0.7,1.7-1.7,1.7H1099.5z M1080.9,401.1h-0.4l-15.7,41.6h31.6L1080.9,401.1z"/>
	<path class="st5" d="M1207.9,487.1c-4.2,0-6.2-1.5-6.2-5.9v-7.8h-0.1c-2.7,6.9-10.6,14.7-23.4,14.7c-18.6,0-31.5-14-31.5-35.8
		c0-20.6,12.6-35,31.6-35c12.5,0,19.7,7,22.7,13.7h0.1c0,0-0.1-2.8-0.1-4.6v-30.4h-7.8c-1.1,0-1.8-0.6-1.8-1.7v-6
		c0-1.1,0.7-1.7,1.8-1.7h17.4c1.1,0,1.7,0.6,1.7,1.7v89.5h7.8c1.1,0,1.7,0.6,1.7,1.7v6c0,1.1-0.7,1.7-1.7,1.7H1207.9z M1201.2,452.5
		c0-16.4-9.8-25.5-21.3-25.5c-12,0-21.7,9.5-21.7,25.3c0,15.5,9.1,25.9,21.7,25.9C1191.9,478.3,1201.2,468.3,1201.2,452.5z"/>
	<path class="st5" d="M1259.7,487.1c-2,0-2.4-0.6-3.1-2.5l-22.3-57h-7.8c-1,0-1.7-0.6-1.7-1.7v-6c0-1.1,0.6-1.7,1.7-1.7h26
		c1.1,0,1.7,0.6,1.7,1.7v6c0,1.1-0.6,1.7-1.7,1.7h-6.2l17.9,47.2h0.3l18.2-47.2h-6.3c-1.1,0-1.7-0.6-1.7-1.7v-6
		c0-1.1,0.6-1.7,1.7-1.7h26c1.1,0,1.8,0.6,1.8,1.7v6c0,1.1-0.7,1.7-1.8,1.7h-7.7l-22.5,57c-0.7,2-1.3,2.5-3.2,2.5H1259.7z"/>
	<path class="st5" d="M1312.9,487.1c-1.1,0-1.8-0.6-1.8-1.7v-6c0-1.1,0.7-1.7,1.8-1.7h7.7v-50.1h-7.7c-1.1,0-1.8-0.6-1.8-1.7v-6
		c0-1.1,0.7-1.7,1.8-1.7h17.6c1.1,0,1.7,0.6,1.7,1.7v57.8h7.4c1.1,0,1.8,0.6,1.8,1.7v6c0,1.1-0.7,1.7-1.8,1.7H1312.9z M1326.2,410.8
		c-4.3,0-7.8-3.4-7.8-7.7c0-4.3,3.5-8,7.8-8s7.8,3.6,7.8,8C1334,407.4,1330.5,410.8,1326.2,410.8z"/>
	<path class="st5" d="M1360.8,478h-0.3c0,0,0.3,6.9,0.3,7.3c0,1.1-0.8,1.8-2,1.8h-4.8c-1.1,0-1.8-0.7-1.8-1.8v-21
		c0-1.1,0.7-1.8,1.8-1.8h5.5c1.1,0,2,0.7,2,1.8v2.8c0,0,3.9,11.9,19.7,11.9c9.9,0,15.1-4.1,15.1-10.9c0-13.9-42.1-6.6-42.1-30.9
		c0-12.5,10.1-19.9,23.4-19.9c10.5,0,16.5,3.6,19.9,8.1h0.3c0,0-0.3-5-0.3-5.2c0-1.1,0.7-1.8,1.8-1.8h4.5c1.1,0,1.8,0.7,1.8,1.8
		v19.5c0,1.1-0.7,1.8-1.8,1.8h-5.5c-1.1,0-2-0.7-2-1.8v-2c0-3.9-4.6-11.2-17.4-11.2c-6.9,0-13.3,3.8-13.3,10.9
		c0,15.7,42.8,7.4,42.8,30.9c0,10.2-7.1,19.7-25.8,19.7C1368.3,488.1,1361.9,480.4,1360.8,478z"/>
	<path class="st5" d="M1419.7,452.4c0-22.1,15.5-35.1,35-35.1s34.7,13.3,34.7,35.1s-14.8,35.7-34.9,35.7
		C1434.7,488.1,1419.7,474.3,1419.7,452.4z M1477.8,452.5c0-16-11.1-25.5-23.1-25.5c-12.2,0-23.2,9.5-23.2,25.5
		c0,15.8,10.6,25.8,23.1,25.8C1467.2,478.3,1477.8,468.3,1477.8,452.5z"/>
	<path class="st5" d="M1502,487.1c-1.1,0-1.8-0.6-1.8-1.7v-6c0-1.1,0.7-1.7,1.8-1.7h7.7v-50.1h-7.7c-1.1,0-1.8-0.6-1.8-1.7v-6
		c0-1.1,0.7-1.7,1.8-1.7h16.4c1.1,0,1.8,0.6,1.8,1.7v17.5h0.4c0,0,4.6-19.5,30-19.5c1.1,0,1.8,0.7,1.8,1.8v7.4
		c0,1.1-0.7,1.8-1.8,1.8h-2.9c-16.9,0-26.3,13.2-26.3,25.2v23.5h7.4c1.1,0,1.8,0.6,1.8,1.7v6c0,1.1-0.7,1.7-1.8,1.7H1502z"/>
	<path class="st5" d="M1567.7,478h-0.3c0,0,0.3,6.9,0.3,7.3c0,1.1-0.8,1.8-2,1.8h-4.8c-1.1,0-1.8-0.7-1.8-1.8v-21
		c0-1.1,0.7-1.8,1.8-1.8h5.5c1.1,0,2,0.7,2,1.8v2.8c0,0,3.9,11.9,19.7,11.9c9.9,0,15.1-4.1,15.1-10.9c0-13.9-42.1-6.6-42.1-30.9
		c0-12.5,10.1-19.9,23.4-19.9c10.5,0,16.5,3.6,19.9,8.1h0.3c0,0-0.3-5-0.3-5.2c0-1.1,0.7-1.8,1.8-1.8h4.5c1.1,0,1.8,0.7,1.8,1.8
		v19.5c0,1.1-0.7,1.8-1.8,1.8h-5.5c-1.1,0-2-0.7-2-1.8v-2c0-3.9-4.6-11.2-17.4-11.2c-6.9,0-13.3,3.8-13.3,10.9
		c0,15.7,42.8,7.4,42.8,30.9c0,10.2-7.1,19.7-25.8,19.7C1575.2,488.1,1568.8,480.4,1567.7,478z"/>
	<path class="st5" d="M738.6,655.1c-1.1,0-1.8-0.6-1.8-1.7v-7.1c0-1.1,0.6-1.7,1.8-1.7h10.6v-79.5h-10.6c-1.1,0-1.8-0.6-1.8-1.7
		v-7.1c0-1.1,0.6-1.7,1.8-1.7h33.5c1.1,0,1.8,0.7,1.8,1.8v6.9c0,1.1-0.7,1.8-1.8,1.8h-10.6v79.5h44.5v-13.7c0-1.1,0.7-1.7,1.8-1.7
		h7.6c1.1,0,1.7,0.6,1.7,1.7v22.4c0,1.1-0.7,1.8-1.8,1.8H738.6z"/>
	<path class="st5" d="M838,655.1c-1.1,0-1.8-0.7-1.8-1.8v-6.9c0-1.1,0.7-1.8,1.8-1.8h10.6v-79.5h-26.5v14.8c0,1.1-0.8,2-2,2h-7.8
		c-1.1,0-2-0.8-2-2v-23.5c0-1.1,0.8-1.8,2-1.8h84.4c1.1,0,2,0.7,2,1.8v23.5c0,1.1-0.8,2-2,2h-8c-1.1,0-1.8-0.8-1.8-2v-14.8h-26.2
		v79.5h9.8c1.1,0,2,0.7,2,1.8v6.9c0,1.1-0.8,1.8-2,1.8H838z"/>
	<path class="st5" d="M913.2,655.1c-1,0-1.7-0.6-1.7-1.7v-7.1c0-1.1,0.6-1.7,1.7-1.7H924v-79.5h-10.8c-1,0-1.7-0.6-1.7-1.7v-7.1
		c0-1.1,0.6-1.7,1.7-1.7H951c30.8,0,50.7,18.6,50.7,50.1c0,31.4-18.8,50.4-48.3,50.4H913.2z M950,644.6
		c25.3-0.1,38.9-13.3,38.9-39.6c0-24.6-13.2-39.9-39.3-39.9h-13.4v79.5H950z"/>
</g>
<g>
</g>
<g>
</g>
<g>
</g>
<g>
</g>
<g>
</g>
<g>
</g>
<g>
</g>
<g>
</g>
<g>
</g>
<g>
</g>
<g>
</g>
<g>
</g>
<g>
</g>
<g>
</g>
<g>
</g>
</svg>
